<?xml version="1.0" standalone="no"?>
<!DOCTYPE svg PUBLIC "-//W3C//DTD SVG 20010904//EN"
 "http://www.w3.org/TR/2001/REC-SVG-20010904/DTD/svg10.dtd">
<svg version="1.0" xmlns="http://www.w3.org/2000/svg"
 width="1024.000000pt" height="1024.000000pt" viewBox="0 0 1024.000000 1024.000000"
 preserveAspectRatio="xMidYMid meet">

<g transform="translate(0.000000,1024.000000) scale(0.100000,-0.100000)"
fill="#000000" stroke="none">
<path d="M4770 9919 c-798 -54 -1608 -329 -2290 -776 -956 -629 -1667 -1584
-1980 -2664 -140 -482 -185 -822 -184 -1379 0 -312 3 -392 22 -550 179 -1489
1032 -2797 2332 -3573 250 -149 636 -326 920 -420 725 -242 1540 -308 2288
-187 1945 316 3506 1785 3931 3700 72 324 100 567 108 935 14 685 -87 1273
-324 1870 -256 648 -629 1209 -1124 1690 -991 962 -2315 1447 -3699 1354z
m180 -270 c30 -7 57 -14 58 -15 2 -1 -6 -24 -17 -50 -19 -41 -23 -45 -34 -31
-30 40 -147 50 -206 19 -84 -45 -93 -162 -17 -231 32 -30 120 -39 181 -19 35
11 40 17 43 47 l3 33 -48 -4 c-26 -3 -56 -8 -65 -12 -16 -7 -18 -2 -18 40 0
35 3 45 11 37 7 -7 45 -9 113 -6 83 5 99 3 89 -8 -16 -16 -17 -111 -1 -127 9
-9 -5 -19 -57 -43 -86 -41 -192 -51 -260 -25 -135 52 -177 238 -76 339 70 71
163 88 301 56z m506 8 c16 6 19 -8 5 -22 -7 -9 112 -345 138 -387 10 -16 7
-18 -21 -17 -35 0 -121 16 -100 18 17 1 15 36 -3 71 -15 30 -16 30 -103 30
l-88 0 -17 -35 c-10 -20 -12 -37 -7 -40 25 -15 5 -25 -50 -25 -33 0 -60 4 -60
9 0 5 4 11 8 13 4 2 47 83 96 180 57 115 86 184 82 196 -6 17 -2 18 50 11 31
-4 62 -5 70 -2z m-1223 -126 c6 -27 4 -32 -8 -27 -14 5 -131 -17 -140 -26 -6
-6 66 -302 76 -315 11 -13 5 -18 -36 -27 -16 -4 -39 -10 -49 -13 -15 -4 -18
-2 -13 11 6 16 -56 289 -72 314 -9 15 -120 -14 -138 -36 -7 -9 -13 -14 -13
-11 0 2 -7 26 -15 52 -13 45 -13 48 3 43 10 -3 33 -1 52 5 19 5 100 25 180 44
83 19 146 39 149 46 5 15 15 -9 24 -60z m1856 22 l78 -39 -32 -37 c-37 -43
-41 -44 -48 -18 -8 31 -84 65 -147 65 -68 1 -111 -26 -134 -84 -20 -51 -20
-65 4 -118 26 -57 84 -84 172 -80 58 3 62 5 69 31 6 24 4 28 -19 34 -15 4 -44
7 -64 7 -40 1 -42 5 -32 54 6 29 7 29 33 16 14 -8 32 -14 39 -14 7 0 45 -7 83
-16 57 -13 67 -18 55 -27 -18 -15 -39 -92 -31 -116 11 -36 -159 -54 -251 -26
-98 29 -155 102 -156 199 -1 71 16 116 56 155 77 75 195 80 325 14z m332 -69
c66 -20 74 -24 59 -34 -9 -5 6 -47 55 -151 37 -79 71 -147 74 -151 10 -11 92
219 85 237 -5 13 3 12 47 -6 66 -25 67 -26 46 -42 -16 -12 -110 -245 -131
-323 l-11 -41 -53 20 c-39 15 -50 23 -42 32 7 9 1 35 -23 91 -45 104 -107 227
-112 222 -12 -12 -74 -235 -69 -250 5 -16 2 -16 -43 -1 -59 19 -59 19 -45 36
18 21 104 329 99 355 -5 26 -5 26 64 6z m-2718 -56 c-2 -13 14 -77 37 -143 45
-135 50 -190 20 -228 -33 -41 -139 -88 -213 -94 -60 -5 -66 -4 -96 23 -21 19
-50 72 -87 154 -30 69 -62 130 -70 137 -18 13 -15 15 55 43 48 19 52 19 47 3
-6 -20 81 -233 107 -263 23 -27 81 -26 137 3 70 34 72 56 25 195 -22 64 -48
124 -58 134 -13 14 -14 20 -5 23 112 41 106 40 101 13z m3435 -218 c91 -44
172 -78 180 -75 7 3 12 2 10 -2 -36 -76 -58 -103 -58 -72 0 5 -55 37 -122 69
l-123 60 -17 -33 c-9 -17 -17 -39 -18 -47 0 -16 130 -80 162 -80 16 0 16 -4
-4 -46 -13 -25 -24 -40 -26 -34 -3 9 -152 90 -166 90 -2 0 -14 -23 -26 -52
-16 -37 -19 -53 -11 -56 7 -2 60 -28 119 -56 59 -29 113 -51 120 -48 15 5 7
-15 -25 -65 l-14 -21 -22 22 c-12 12 -85 50 -162 85 -77 35 -142 66 -144 68
-3 2 3 9 11 16 21 16 161 334 153 347 -13 21 22 7 183 -70z m-3978 -10 c24
-47 25 -54 4 -46 -13 5 -184 -74 -242 -112 -12 -8 -1 -38 33 -90 5 -7 157 83
162 96 4 10 13 1 29 -29 27 -52 29 -60 10 -53 -12 5 -124 -44 -153 -68 -8 -6
-4 -21 14 -53 14 -25 28 -45 32 -45 13 0 226 113 233 124 8 13 11 10 32 -31
20 -40 20 -54 1 -47 -9 4 -80 -29 -165 -75 -83 -44 -153 -81 -155 -81 -3 0 -5
6 -5 14 0 26 -184 326 -199 326 -30 0 13 28 171 110 87 45 160 86 164 91 9 15
12 11 34 -31z m2410 -155 c1163 -141 2184 -765 2825 -1725 294 -441 479 -879
595 -1410 39 -179 41 -185 49 -173 4 6 23 6 51 -1 l45 -9 -50 -9 c-27 -5 -54
-13 -60 -18 -5 -4 -28 -11 -50 -15 -105 -19 -215 -126 -249 -244 -26 -89 -16
-206 24 -281 22 -42 74 -101 100 -116 l25 -13 -26 -1 c-14 0 -33 -8 -42 -18
-20 -22 -109 -250 -109 -279 0 -33 29 -73 55 -74 71 -4 99 -9 162 -32 178 -65
379 -74 520 -25 39 14 79 28 90 32 11 3 -4 -5 -33 -20 -29 -14 -94 -35 -145
-46 -96 -20 -283 -42 -303 -34 -7 3 -19 -35 -34 -107 -194 -990 -700 -1825
-1467 -2424 -572 -446 -1238 -718 -1983 -810 -204 -25 -686 -25 -890 0 -1191
147 -2207 772 -2855 1757 -293 445 -487 925 -595 1476 l-22 111 -71 13 c-40 7
-110 14 -157 16 -47 2 -119 8 -160 13 l-75 8 95 2 c106 1 138 13 158 55 16 33
9 68 -19 94 -18 17 -20 33 -22 135 l-2 115 63 -122 c35 -66 76 -149 92 -183
15 -33 37 -66 48 -72 31 -16 77 -13 94 7 16 18 177 305 200 357 l13 29 7 -44
c3 -25 7 -82 7 -127 1 -74 -1 -82 -20 -88 -54 -17 -44 -124 13 -144 41 -15
330 -14 361 0 50 23 62 95 22 135 l-25 25 0 387 c0 375 1 388 20 405 28 24 30
98 3 129 -13 15 -40 16 -228 15 -194 -2 -215 -4 -234 -21 -26 -23 -29 -91 -5
-117 15 -16 13 -23 -17 -81 -19 -35 -37 -65 -41 -66 -5 -2 -6 -8 -2 -13 3 -5
1 -9 -4 -9 -5 0 -9 -6 -9 -12 0 -7 -11 -32 -25 -55 l-24 -43 2 103 2 102 -12
-130 c-18 -199 -18 -199 -120 10 -80 165 -85 179 -71 198 20 28 19 81 -1 112
-15 24 -15 24 33 30 26 3 60 9 75 11 22 4 28 2 29 -13 0 -10 13 43 29 117 71
338 162 632 280 896 489 1100 1443 1915 2604 2224 214 57 455 98 701 120 151
13 608 4 765 -15z m2011 -77 c57 -35 124 -84 151 -109 43 -40 48 -50 48 -88 0
-37 -6 -49 -40 -84 -39 -38 -42 -40 -89 -34 l-50 6 -6 -65 c-4 -36 -5 -81 -2
-100 6 -38 8 -38 -62 9 -24 16 -39 32 -33 36 5 3 13 44 17 91 l7 86 -49 30
-49 31 -37 -57 c-20 -31 -37 -64 -37 -73 0 -22 -1 -22 -55 10 -45 28 -56 43
-32 43 15 1 192 299 191 323 -1 23 4 21 127 -55z m-4907 -12 c-3 -14 4 -89 16
-168 30 -199 39 -238 56 -238 25 0 14 -14 -36 -47 -56 -37 -60 -38 -60 -19 0
24 -351 213 -371 200 -5 -3 -9 -1 -9 4 0 5 21 24 47 43 70 51 75 53 71 33 -2
-13 27 -35 120 -87 68 -38 125 -68 127 -66 2 3 -2 33 -10 69 -7 36 -18 97 -25
137 -10 62 -15 72 -33 75 -18 2 -9 11 43 45 36 23 66 42 68 42 1 1 0 -10 -4
-23z m5638 -564 c85 -87 98 -111 98 -181 0 -59 -39 -124 -99 -165 -53 -37
-140 -47 -189 -22 -41 21 -256 216 -238 216 7 0 70 63 139 141 91 101 124 145
119 157 -8 24 78 -51 170 -146z m-6325 44 c-7 -18 248 -286 271 -286 11 0 1
-15 -28 -45 -41 -42 -71 -60 -54 -34 8 13 -254 279 -275 279 -9 0 6 21 34 50
52 53 60 59 52 36z m-102 -322 c107 -99 125 -125 125 -182 0 -76 -118 -219
-202 -244 -50 -15 -73 -4 -209 97 -75 57 -116 82 -127 77 -19 -6 -20 -9 38 66
28 37 35 41 42 27 6 -9 55 -52 110 -96 110 -87 137 -95 189 -58 34 24 79 97
79 127 0 12 -17 39 -38 60 -69 68 -167 150 -184 153 -15 3 -10 13 24 53 37 43
42 46 49 29 4 -11 51 -60 104 -109z m6795 -119 c40 -49 97 -123 127 -163 29
-40 58 -70 63 -67 6 3 10 3 10 -2 0 -8 -73 -63 -84 -63 -3 0 -3 6 0 13 3 10
-128 197 -172 246 -4 4 -72 -51 -73 -60 -2 -15 112 -149 127 -149 13 -1 9 -7
-13 -26 -16 -14 -39 -30 -49 -36 -16 -8 -18 -8 -13 5 6 15 -95 157 -111 157
-4 0 -25 -15 -46 -33 l-39 -33 84 -111 c46 -61 91 -113 99 -115 10 -2 1 -13
-25 -31 -41 -28 -61 -35 -50 -17 7 11 -63 109 -167 236 -61 75 -66 84 -45 84
21 0 287 229 287 246 0 26 16 12 90 -81z m-7175 -354 c48 -22 99 -76 115 -125
10 -33 14 -35 43 -29 18 3 37 10 43 15 8 5 13 -2 18 -23 9 -46 7 -81 -3 -74
-6 3 -28 3 -50 -1 -37 -6 -43 -11 -66 -61 -36 -79 -78 -128 -137 -157 -104
-52 -215 -24 -272 68 -56 90 -31 217 66 322 74 80 159 103 243 65z m7471 -102
c68 -32 124 -119 148 -231 7 -35 17 -72 22 -82 6 -16 4 -18 -10 -13 -10 4 -34
7 -54 7 l-37 0 3 50 c5 64 -10 107 -54 159 -38 43 -79 55 -91 25 -3 -9 9 -48
27 -88 52 -115 63 -160 50 -201 -24 -74 -111 -99 -181 -52 -51 34 -115 136
-129 204 -6 32 -16 66 -22 76 -12 24 -13 23 50 32 l52 7 -11 -25 c-15 -32 1
-103 37 -164 27 -47 50 -63 88 -63 37 0 34 31 -14 144 -55 127 -52 177 12 216
42 25 61 25 114 -1z m414 -943 c0 -15 -102 -216 -110 -216 -9 0 -208 96 -218
105 -2 2 22 53 52 114 l56 111 110 -55 c61 -30 110 -57 110 -59z m-8266 -1
c31 -57 56 -108 56 -113 0 -9 -210 -126 -215 -120 -2 2 -28 51 -60 110 l-56
107 43 24 c38 22 170 95 175 96 1 1 26 -46 57 -104z m8256 -978 c41 -14 104
-39 139 -56 50 -23 68 -28 83 -20 11 6 22 8 25 5 8 -8 -90 -219 -102 -223 -6
-1 -17 12 -25 30 -46 99 -347 154 -470 86 -56 -31 -77 -69 -60 -109 17 -41 58
-53 250 -70 208 -19 293 -45 357 -112 48 -49 73 -113 73 -184 1 -202 -159
-318 -435 -317 -123 0 -202 16 -326 65 -66 26 -84 29 -100 20 -10 -6 -20 -8
-22 -4 -7 11 79 226 92 230 6 2 11 -3 11 -12 0 -39 84 -85 203 -111 207 -46
403 19 370 123 -15 46 -63 60 -264 82 -101 10 -200 25 -219 31 -126 44 -187
141 -178 283 10 146 104 243 272 282 90 20 233 12 326 -19z m-8380 -1 c0 -7
-7 -20 -16 -27 -32 -26 -11 -87 111 -323 l117 -228 45 84 c94 175 213 419 213
436 0 11 -9 27 -20 37 -11 10 -20 22 -20 27 0 11 357 10 364 -1 3 -5 -5 -16
-19 -25 l-25 -16 0 -430 c0 -449 0 -447 42 -463 9 -3 10 -8 2 -16 -7 -8 -57
-11 -159 -9 -149 3 -183 12 -132 35 15 7 27 23 31 43 10 51 7 555 -3 544 -5
-5 -75 -133 -156 -284 -81 -151 -156 -288 -165 -304 l-18 -29 -110 219 c-61
120 -133 262 -161 314 l-51 95 0 -283 0 -283 25 -23 c45 -42 35 -46 -120 -46
-153 0 -167 5 -120 42 l25 19 0 424 c0 372 -2 425 -16 439 -8 9 -20 16 -25 16
-5 0 -9 7 -9 15 0 13 27 15 185 15 150 0 185 -3 185 -14z m8684 -301 c7 -157
10 -182 25 -218 6 -16 11 -34 10 -40 0 -7 -6 4 -14 24 -20 56 -64 117 -107
148 -35 26 -37 30 -21 42 9 8 34 52 55 98 21 46 40 82 42 80 2 -2 6 -62 10
-134z m-391 70 c73 -15 147 -51 147 -71 0 -10 -8 -10 -32 -3 -18 5 -67 12
-108 15 -101 6 -253 24 -259 29 -15 16 72 44 134 44 28 1 81 -6 118 -14z
m-8684 -252 c-1 -198 -1 -206 -15 -158 -20 67 -22 225 -5 303 8 34 15 62 17
62 2 0 4 -93 3 -207z m9118 -125 c-3 -7 -5 -2 -5 12 0 14 2 19 5 13 2 -7 2
-19 0 -25z m-540 -43 c83 -8 162 -19 175 -24 22 -8 22 -8 -10 -25 -47 -24
-272 -22 -273 2 0 11 -2 12 -6 5 -2 -7 -12 -13 -21 -13 -30 0 -102 45 -116 71
l-13 26 56 -13 c31 -8 124 -20 208 -29z m-8128 -1184 c55 -27 106 -51 113 -54
9 -3 -3 -37 -42 -115 -30 -62 -56 -112 -59 -112 -14 0 -221 105 -219 111 6 15
103 218 105 219 1 0 47 -22 102 -49z m8277 -67 c54 -101 56 -108 39 -120 -21
-15 -190 -104 -198 -104 -10 0 -119 211 -113 217 9 9 200 112 208 113 4 0 33
-48 64 -106z m-7890 -605 c52 -25 104 -81 141 -151 22 -43 27 -67 28 -124 0
-60 -4 -76 -28 -112 -37 -57 -93 -84 -165 -81 l-57 3 0 -47 c0 -26 -2 -46 -5
-45 -3 2 -29 12 -58 22 -47 18 -68 36 -42 36 5 0 14 18 20 41 11 38 9 42 -21
77 -68 77 -104 202 -79 276 15 47 56 95 95 112 46 20 122 17 171 -7z m7385
-87 c-55 -9 -150 -146 -137 -198 13 -50 57 -22 124 76 90 134 187 157 238 58
38 -73 -16 -208 -122 -307 -37 -34 -67 -60 -69 -59 -1 2 -11 17 -23 35 -28 40
-28 53 2 53 16 0 40 18 75 56 54 59 78 115 67 159 -11 44 -44 29 -98 -45 -81
-113 -112 -140 -159 -140 -51 0 -75 13 -94 50 -37 72 -4 167 96 277 l64 70 28
-41 c25 -39 26 -41 8 -44z m-307 -395 c22 -16 25 -22 14 -28 -16 -9 -173 -218
-167 -223 2 -1 17 -12 33 -24 16 -12 32 -22 36 -22 13 0 110 136 110 154 0 13
8 10 39 -12 21 -15 35 -28 30 -30 -7 -3 -41 -45 -120 -148 -6 -7 7 -22 35 -42
l44 -32 82 111 c45 61 85 121 89 134 l6 22 38 -24 c32 -20 36 -26 25 -36 -8
-7 -60 -73 -116 -147 -133 -178 -151 -199 -152 -178 0 20 -257 227 -282 228
-19 0 -24 15 -8 25 21 13 210 274 210 289 0 18 5 17 54 -17z m-6696 -54 c20
-29 21 -32 5 -30 -19 1 -116 -60 -190 -120 -32 -26 -43 -41 -43 -63 0 -39 58
-121 102 -145 32 -17 40 -18 61 -6 45 24 202 152 205 167 3 10 15 0 38 -28 33
-41 44 -65 25 -54 -5 4 -57 -32 -115 -80 -119 -96 -145 -108 -202 -88 -79 27
-204 192 -204 270 0 46 33 80 154 160 58 38 106 75 106 83 0 14 14 -2 58 -66z
m376 -479 c-33 -17 -252 -224 -256 -241 -2 -9 -23 7 -53 38 -27 29 -42 49 -33
46 19 -7 278 218 278 242 0 9 18 -2 45 -29 l44 -43 -25 -13z m6017 54 c47 -13
113 -68 135 -110 22 -42 20 -108 -5 -155 -25 -50 -233 -251 -240 -232 -6 20
-233 260 -252 268 -12 4 10 30 92 106 141 131 183 150 270 123z m-5679 -321
c31 -25 35 -32 23 -41 -13 -10 -79 -256 -70 -264 7 -8 245 124 245 136 0 18 6
16 56 -19 l45 -30 -83 -45 c-46 -24 -127 -67 -180 -94 -58 -30 -98 -56 -98
-65 0 -22 -5 -20 -66 27 -51 38 -54 43 -35 50 12 4 21 13 21 20 -2 35 86 366
95 360 5 -3 27 -19 47 -35z m5069 -216 c45 -45 50 -78 18 -130 -11 -18 -19
-35 -17 -36 11 -10 164 -46 179 -42 33 9 21 -7 -38 -48 -69 -48 -75 -51 -67
-32 4 12 -14 22 -79 43 l-85 28 -46 -30 -45 -30 37 -57 c20 -31 43 -57 50 -57
24 0 11 -16 -38 -42 -58 -33 -57 -32 -57 -14 0 17 -147 256 -179 291 l-21 23
100 64 c202 127 225 132 288 69z m-4623 -94 c105 -67 263 -146 278 -140 14 5
13 -1 -6 -35 -23 -41 -35 -51 -42 -33 -1 4 -52 35 -113 68 l-110 60 -22 -33
c-13 -18 -23 -37 -23 -41 0 -11 134 -83 154 -83 20 0 20 -2 -5 -45 -18 -29
-23 -33 -33 -22 -14 18 -133 87 -149 87 -7 0 -23 -19 -36 -41 -27 -48 -37 -37
105 -114 56 -30 111 -55 123 -55 l21 0 -20 -40 -20 -39 -34 22 c-19 12 -100
58 -180 102 -136 75 -164 95 -133 95 13 0 197 278 197 298 0 17 5 15 48 -11z
m4142 -180 c0 -5 -5 -5 -11 -1 -9 5 -190 -74 -238 -103 -4 -3 30 -83 35 -83
15 0 154 71 154 79 0 22 16 10 37 -28 21 -36 21 -40 5 -38 -18 1 -162 -62
-162 -72 0 -17 34 -91 42 -91 18 0 233 112 245 127 7 9 14 15 16 12 10 -13 47
-77 47 -82 0 -4 -6 -4 -14 -1 -8 3 -46 -11 -84 -30 -87 -44 -272 -126 -283
-126 -5 0 -6 6 -3 14 7 18 -136 324 -153 328 -8 2 58 36 146 76 88 41 162 81
166 90 4 12 12 7 30 -24 13 -21 25 -43 25 -47z m-3671 -61 c29 -15 39 -25 29
-28 -8 -3 -38 -59 -68 -124 -49 -110 -52 -120 -39 -143 32 -58 166 -93 201
-53 23 25 101 230 94 247 -7 18 -6 18 35 1 19 -7 43 -16 53 -20 17 -6 17 -8 3
-19 -9 -6 -35 -64 -57 -127 -62 -171 -97 -197 -220 -166 -78 20 -154 61 -187
100 -35 42 -28 86 36 215 28 57 51 112 51 122 0 24 15 23 69 -5z m3157 -95
c-7 -11 120 -325 134 -329 23 -8 7 -21 -50 -41 -49 -16 -60 -17 -58 -6 2 10
-48 40 -149 89 -84 41 -153 71 -153 66 0 -27 64 -207 77 -217 14 -11 13 -14
-9 -22 -14 -5 -42 -13 -61 -16 -32 -6 -35 -5 -30 13 5 21 -80 316 -97 337 -8
10 0 15 34 24 24 6 50 13 58 16 10 4 17 -1 20 -13 4 -13 51 -42 137 -86 73
-37 136 -66 141 -64 10 3 -58 187 -79 211 -11 15 -10 18 10 25 13 5 31 12 39
15 24 9 42 8 36 -2z m-2714 -61 c4 -13 315 -92 337 -85 17 5 18 2 8 -40 -6
-25 -14 -45 -19 -45 -4 0 -8 4 -8 9 0 11 -118 36 -128 27 -3 -4 -23 -69 -44
-144 -29 -108 -35 -139 -25 -151 10 -11 8 -13 -8 -8 -11 3 -42 11 -68 18 -43
10 -46 13 -34 28 14 15 87 250 87 277 0 15 -106 48 -126 40 -17 -7 -17 -4 -2
45 11 38 23 49 30 29z m2135 -163 c-5 -23 -11 -43 -12 -45 -1 -1 -15 4 -31 13
-67 35 -186 5 -224 -57 -25 -39 -23 -102 5 -144 37 -58 146 -69 234 -25 41 21
48 34 32 60 -11 17 -88 6 -113 -17 -16 -13 -18 -13 -18 0 0 9 -3 29 -6 46 -6
27 -4 30 14 25 11 -2 55 2 97 11 42 9 82 16 89 16 7 0 11 -20 12 -52 1 -36 6
-55 18 -64 16 -11 12 -16 -30 -45 -94 -64 -205 -90 -294 -69 -119 29 -182 155
-131 265 43 94 143 135 306 127 l62 -4 -10 -41z m-1140 -29 c38 -12 70 -23 72
-24 1 -2 -7 -20 -19 -42 l-22 -39 -23 22 c-31 32 -118 50 -172 36 -58 -16
-103 -69 -103 -122 0 -83 67 -139 168 -139 70 0 102 14 102 44 0 21 -6 25 -50
31 -36 5 -55 3 -67 -7 -15 -12 -16 -10 -10 21 4 18 7 40 7 48 0 11 3 13 13 5
7 -6 56 -14 110 -18 79 -5 95 -9 86 -20 -6 -8 -9 -38 -7 -71 l3 -57 -55 -18
c-85 -26 -212 -24 -275 6 -81 38 -115 87 -115 167 0 162 160 241 357 177z
m495 0 c-9 -9 -5 -24 20 -67 53 -96 179 -281 191 -282 23 -2 -68 -18 -107 -18
-30 -1 -36 2 -28 12 8 10 6 21 -8 45 l-20 32 -95 0 -94 0 -17 -31 c-8 -17 -14
-40 -11 -50 5 -17 -1 -19 -60 -19 -61 0 -64 1 -47 18 10 9 51 86 92 171 53
110 72 161 68 177 -6 23 -5 24 61 24 52 0 64 -3 55 -12z"/>
<path d="M5356 9485 c-21 -36 -36 -68 -34 -69 1 -2 29 -6 61 -9 67 -7 67 -6
34 83 l-24 62 -37 -67z"/>
<path d="M4920 9004 c-25 -2 -101 -9 -170 -14 -168 -15 -387 -53 -581 -101
-1431 -352 -2562 -1524 -2854 -2958 -27 -132 -31 -191 -15 -191 6 0 13 14 16
30 4 17 11 30 16 30 5 0 28 13 51 28 23 16 55 32 70 36 21 5 27 11 23 24 -3 9
-10 58 -16 109 -14 116 1 261 36 347 13 33 24 67 24 77 0 9 12 27 26 40 14 13
51 49 83 80 31 31 69 64 85 74 18 12 47 57 83 129 l55 110 57 -64 57 -63 93 6
c234 15 470 -50 682 -189 41 -27 122 -95 180 -151 89 -87 114 -106 158 -119
113 -33 109 -21 -54 146 -128 132 -200 210 -374 403 -20 22 -22 27 -8 27 9 0
54 -39 99 -87 46 -49 183 -190 306 -314 l224 -226 239 -68 c132 -37 243 -65
246 -61 4 3 -22 47 -56 96 -34 50 -59 90 -54 90 4 -1 43 -45 86 -98 77 -97
137 -149 137 -119 0 7 -23 76 -51 153 -69 192 -68 185 -30 150 17 -17 31 -27
31 -23 0 3 28 -7 63 -23 45 -22 63 -27 65 -17 1 7 -35 91 -81 187 -75 156 -90
200 -68 200 3 0 50 -87 103 -193 53 -106 108 -208 123 -226 25 -28 228 -141
256 -141 15 0 11 25 -20 128 -50 167 -38 153 -289 337 -138 101 -169 132 -131
129 8 -1 85 -53 173 -117 87 -65 162 -117 167 -117 5 0 9 8 10 18 0 13 2 14 6
2 15 -38 64 -88 155 -156 111 -84 134 -91 124 -41 -4 17 -11 74 -16 126 -6 52
-19 114 -31 140 -12 28 -16 47 -9 49 24 8 8 70 -44 166 -77 147 -155 276 -166
276 -5 0 -63 -40 -127 -89 -163 -123 -287 -246 -380 -380 -6 -8 -14 7 -33 57
l-19 50 29 37 c17 21 30 39 30 41 0 2 -18 15 -40 29 -47 30 -55 59 -14 49 26
-7 27 -6 20 29 -10 54 8 52 34 -4 13 -28 28 -53 33 -56 5 -3 32 20 62 50 84
86 204 188 272 232 35 22 63 44 63 48 0 21 -72 118 -84 114 -25 -10 -159 -109
-242 -178 -82 -69 -156 -148 -190 -205 l-19 -31 -302 201 c-313 208 -331 221
-320 232 9 9 106 -51 379 -232 125 -83 228 -150 228 -147 0 2 -7 20 -15 39
-14 33 -13 37 6 64 l22 28 -76 174 c-90 205 -160 379 -154 384 11 11 41 -46
105 -196 39 -91 88 -204 109 -251 l39 -86 79 74 c92 85 236 199 271 215 13 6
24 17 24 23 0 27 -172 237 -295 361 -150 151 -263 243 -390 319 -234 140 -377
146 -453 17 -26 -46 -27 -51 -26 -197 1 -133 4 -163 31 -264 l30 -114 -31 -27
c-17 -15 -71 -62 -121 -104 l-90 -77 -14 78 c-14 84 -23 100 -59 114 -29 11
-18 33 14 26 22 -4 24 -1 24 36 l0 41 -46 -44 c-65 -64 -234 -265 -234 -279 0
-18 51 -90 163 -229 55 -68 96 -126 93 -130 -10 -10 -127 117 -210 228 l-74
100 -27 -32 c-39 -46 -165 -240 -223 -343 -28 -49 -55 -96 -60 -104 -5 -10
-23 5 -65 56 -31 39 -57 75 -57 81 0 29 172 296 301 469 l32 42 -17 41 c-17
42 -21 117 -8 136 25 39 172 49 172 12 0 -6 -22 -7 -56 -2 -49 6 -58 4 -80
-17 -28 -26 -30 -55 -8 -107 l16 -37 51 60 c28 33 120 130 203 215 145 148
153 158 177 227 71 207 219 339 424 380 l81 16 6 42 c10 61 43 90 94 81 22 -3
59 -17 83 -30 35 -20 40 -26 26 -32 -11 -4 -37 4 -68 21 -47 25 -51 26 -75 10
-27 -17 -48 -60 -40 -82 12 -29 84 -15 179 36 111 60 333 161 353 161 11 0 14
-19 14 -89 l0 -90 -107 -52 c-72 -35 -102 -54 -89 -57 10 -2 80 -45 155 -95
110 -74 166 -121 292 -247 86 -85 191 -199 234 -252 66 -83 80 -96 95 -88 17
9 18 25 14 252 -7 307 11 304 26 -3 6 -117 13 -215 15 -218 3 -2 40 11 82 29
43 18 97 39 120 46 l43 13 31 -45 c17 -25 27 -49 23 -53 -5 -4 -36 -15 -69
-25 -33 -10 -99 -36 -147 -58 l-87 -41 36 -56 c19 -31 37 -57 38 -59 2 -2 26
8 53 22 42 21 177 76 187 76 8 0 54 -93 50 -100 -3 -4 -17 -11 -32 -14 -40
-10 -183 -78 -183 -87 0 -4 28 -59 61 -121 100 -184 165 -333 221 -505 31 -94
58 -162 66 -163 6 0 12 -4 12 -10 0 -5 8 -10 19 -10 14 0 21 13 31 63 7 34 19
87 26 117 8 30 14 76 14 103 0 34 6 57 20 74 11 14 20 34 20 44 0 11 25 116
55 236 l55 216 -95 331 c-52 182 -106 367 -120 411 -25 81 -33 137 -16 120 5
-6 21 -44 34 -85 35 -105 95 -298 107 -340 5 -19 21 -73 34 -120 14 -47 31
-111 38 -144 12 -53 29 -78 44 -63 3 3 16 45 29 94 58 216 68 251 86 305 10
32 19 63 19 71 0 7 16 37 36 67 20 30 33 46 29 35 -4 -11 -33 -112 -66 -225
-32 -113 -63 -221 -69 -240 -5 -19 -21 -75 -35 -125 l-25 -90 62 -250 c33
-137 63 -252 65 -254 2 -3 24 18 48 46 88 100 221 199 442 327 45 26 86 52 91
59 5 7 12 50 15 97 20 269 29 402 37 552 4 91 13 175 19 185 10 17 10 17 12
-2 5 -104 -15 -518 -37 -728 -11 -110 -15 -113 227 218 168 231 272 361 277
347 5 -17 -10 -41 -162 -245 -255 -345 -254 -342 -101 -209 119 104 256 268
339 407 31 50 76 163 76 188 0 4 -22 -16 -50 -45 -27 -29 -49 -48 -50 -42 0
12 46 82 94 141 36 45 51 107 44 186 -3 38 -5 39 -83 74 -44 20 -134 55 -199
79 -65 24 -121 46 -124 49 -5 5 33 62 77 113 l28 33 94 -34 c52 -19 111 -42
132 -51 20 -9 37 -12 37 -7 0 20 -96 114 -139 135 -53 27 -133 46 -194 46 -99
0 -250 -59 -385 -152 -169 -116 -427 -409 -598 -679 l-58 -91 -93 98 c-51 55
-92 103 -93 108 0 14 88 133 190 256 105 124 194 217 290 301 54 47 59 54 41
61 -28 10 -436 31 -484 25 -67 -9 -69 -5 -36 85 16 45 29 83 29 86 0 8 441 -7
522 -18 l77 -10 75 75 c41 41 79 75 85 75 18 0 68 -61 91 -109 21 -43 22 -43
63 -37 98 15 236 18 303 7 152 -27 312 -134 399 -269 34 -52 46 -61 119 -95
44 -20 84 -37 88 -37 4 0 28 13 53 29 55 35 114 47 145 31 30 -16 50 -69 50
-135 0 -42 -3 -55 -15 -55 -12 0 -15 13 -15 61 0 66 -10 93 -40 109 -17 9 -32
5 -80 -21 -33 -17 -60 -35 -60 -40 0 -4 26 -22 58 -40 83 -47 272 -171 359
-235 l75 -55 -75 -50 c-41 -27 -78 -49 -81 -49 -3 0 -42 25 -87 56 l-82 56
-50 -154 c-45 -139 -86 -227 -94 -202 -2 5 14 59 36 119 21 61 48 143 59 183
l21 73 -42 26 c-23 15 -82 50 -132 79 -82 47 -91 55 -99 90 -17 75 -38 145
-42 142 -2 -2 4 -28 12 -58 22 -78 30 -283 14 -378 -36 -224 -157 -460 -319
-622 -129 -129 -374 -304 -580 -415 -182 -98 -324 -235 -370 -359 -27 -72 -41
-227 -41 -448 l0 -177 -127 -111 c-118 -103 -152 -138 -125 -129 6 2 68 52
137 112 l125 108 0 50 c0 42 2 49 14 40 10 -9 23 -3 55 26 40 36 43 41 47 106
4 57 2 68 -12 74 -12 4 -28 -6 -55 -38 -20 -24 -40 -41 -44 -38 -14 15 10 59
56 105 l49 48 0 148 c0 159 -7 179 -44 117 -10 -17 -20 -28 -23 -25 -9 8 57
123 88 152 l30 29 -21 -48 c-20 -44 -21 -59 -14 -172 4 -85 11 -128 20 -136
11 -9 31 7 95 72 44 46 89 102 99 124 11 24 25 99 35 185 16 136 25 173 41
157 4 -3 1 -63 -6 -133 -10 -87 -11 -131 -3 -142 7 -12 5 -28 -8 -58 -10 -22
-23 -78 -28 -125 -5 -46 -13 -103 -17 -126 -5 -36 -4 -43 9 -43 23 0 223 155
250 194 13 19 29 30 39 28 10 -2 80 43 165 105 81 60 172 126 202 148 48 35
59 50 103 144 71 151 207 457 262 588 43 102 76 156 76 124 0 -20 -122 -314
-219 -527 -50 -110 -91 -205 -91 -212 0 -22 22 -13 89 37 69 51 432 291 539
356 34 21 65 36 67 33 11 -10 -73 -73 -275 -205 -399 -263 -500 -338 -500
-373 0 -5 -32 -73 -70 -151 -50 -102 -65 -139 -53 -135 10 3 -2 -12 -27 -35
-289 -267 -398 -380 -507 -527 -49 -66 -102 -155 -115 -193 -4 -12 -8 -12 -20
-1 -23 19 -311 29 -360 13 -60 -20 -76 -97 -28 -139 19 -16 20 -31 20 -404 0
-373 -1 -389 -20 -408 -27 -27 -34 -64 -18 -96 23 -49 47 -55 230 -52 188 3
196 6 205 75 4 32 0 44 -21 70 l-27 32 3 378 3 378 24 32 c19 25 23 40 18 72
-4 36 1 51 46 126 75 122 120 173 149 168 13 -2 48 4 78 15 55 18 55 19 117
128 35 60 63 112 63 117 0 4 -7 7 -15 7 -8 0 18 31 58 69 46 45 73 64 75 55 5
-19 2 -19 89 21 42 19 78 33 80 31 4 -4 -92 -66 -102 -66 -3 0 -27 -14 -54
-31 -45 -27 -56 -41 -111 -150 -34 -66 -59 -123 -56 -128 6 -9 221 55 263 77
12 7 66 65 119 130 53 64 104 124 112 132 21 21 -22 -51 -85 -142 -53 -78 -65
-105 -39 -95 7 3 97 29 200 58 l187 52 26 -24 c15 -13 -2 11 -37 54 -70 85
-152 165 -236 229 -30 22 -51 44 -48 49 2 5 28 15 56 24 48 14 52 14 82 -7 17
-12 86 -76 152 -144 l122 -122 43 44 c43 44 69 56 69 31 0 -8 -11 -24 -25 -37
-14 -13 -25 -27 -25 -32 0 -10 48 -9 75 1 12 5 26 4 35 -3 12 -9 13 -8 4 4
-81 114 -240 280 -290 302 -13 6 -24 14 -24 18 0 8 96 50 114 50 6 0 55 -44
108 -97 l98 -97 61 59 c33 33 117 122 187 198 107 117 182 184 182 163 0 -9
-112 -136 -260 -294 -159 -171 -156 -163 -86 -230 l31 -30 165 41 165 40 121
122 c121 122 259 294 308 385 l26 48 -20 35 -20 34 40 12 c36 11 60 34 48 46
-2 2 -28 -3 -57 -11 -29 -9 -54 -14 -55 -12 -1 1 -27 38 -56 81 -30 42 -57 77
-61 77 -4 0 -14 -11 -22 -24 -39 -59 -179 -227 -202 -242 -44 -29 -38 -8 17
58 29 34 84 102 120 150 l67 87 -34 46 c-19 25 -35 50 -35 56 0 14 187 7 213
-8 10 -5 45 -47 79 -94 l60 -84 -5 47 c-13 128 -144 190 -356 168 -93 -10
-229 -38 -283 -59 -26 -10 -31 -6 -132 112 l-105 122 87 17 c48 10 116 17 152
18 l64 0 -49 51 c-28 28 -110 103 -184 167 l-133 115 77 49 77 49 56 -43 c31
-24 131 -116 223 -206 l167 -163 44 10 c84 20 158 10 180 -23 4 -6 8 -32 8
-58 0 -44 2 -48 49 -82 140 -100 222 -297 207 -499 -12 -171 -106 -377 -263
-575 -79 -100 -280 -296 -407 -397 -54 -44 -93 -81 -87 -83 6 -2 23 5 38 16
25 17 53 20 238 26 l210 7 75 35 c89 42 320 182 320 194 0 19 -89 261 -104
285 -11 17 -23 24 -34 21 -9 -3 -48 -8 -87 -11 -64 -7 -69 -6 -55 9 9 8 43 19
78 24 34 5 65 12 69 15 4 4 -6 34 -22 67 l-28 59 33 103 c18 57 36 111 39 122
5 13 32 -33 96 -168 l90 -186 36 0 c77 0 169 -51 169 -93 0 -30 -29 -83 -72
-132 l-40 -45 20 -68 c11 -37 33 -113 48 -169 22 -83 30 -103 45 -103 32 0
113 -31 147 -57 l32 -24 0 22 c0 70 -97 435 -163 614 -374 1013 -1144 1822
-2136 2245 -342 145 -754 251 -1136 290 -107 11 -500 21 -575 14z m-371 -130
c56 -52 76 -84 51 -84 -5 0 -28 20 -51 45 -25 27 -50 45 -64 45 -29 0 -61 -36
-79 -88 -18 -51 -29 -49 136 -22 131 20 323 40 399 40 l47 0 -28 -87 -28 -88
-104 -10 c-112 -11 -111 -10 -83 -70 61 -135 105 -263 105 -303 0 -37 -13 -18
-40 58 -51 146 -122 300 -137 300 -42 0 -285 -44 -298 -54 -13 -9 -17 -48 -23
-216 -7 -181 -10 -202 -21 -175 -10 23 -12 72 -7 208 4 104 3 177 -2 177 -23
0 -300 -84 -411 -124 -69 -25 -127 -43 -130 -40 -3 3 -6 45 -6 92 l0 87 125
43 c107 37 252 79 417 122 38 9 43 14 58 61 17 50 80 137 101 138 7 1 39 -24
73 -55z m1659 -225 c23 -7 42 -14 42 -16 0 -7 -102 -138 -110 -141 -5 -2 -48
8 -96 22 -49 15 -91 26 -95 26 -4 0 -6 -85 -5 -189 1 -126 -3 -194 -10 -201
-8 -8 -12 44 -17 191 -3 136 -9 204 -17 209 -12 7 7 22 70 55 54 28 163 65
180 60 8 -2 34 -9 58 -16z m-3035 -530 l59 -24 33 -110 c19 -60 49 -154 69
-207 34 -95 34 -125 0 -73 -18 27 -113 299 -114 325 -1 46 -17 43 -106 -18
-49 -34 -128 -92 -176 -131 -86 -69 -88 -70 -94 -45 -8 33 5 151 21 189 14 33
40 59 100 100 35 23 47 26 95 22 30 -3 81 -15 113 -28z m-305 -749 c40 -29 57
-58 28 -47 -36 14 -96 59 -91 67 9 15 19 12 63 -20z m4579 4 c2 -5 -19 -21
-47 -36 -59 -32 -65 -23 -14 21 34 31 54 36 61 15z m-1360 -846 c-3 -8 -6 -5
-6 6 -1 11 2 17 5 13 3 -3 4 -12 1 -19z m-407 -908 c0 -5 -11 -20 -25 -34
l-25 -25 0 -416 0 -416 25 -23 c46 -43 36 -46 -130 -46 -163 0 -177 4 -130 42
l25 19 0 424 0 424 -25 19 c-47 38 -33 42 130 42 92 0 155 -4 155 -10z"/>
<path d="M5721 8835 c-22 -24 -41 -49 -41 -54 0 -16 139 -35 166 -22 27 12 29
22 13 54 -20 38 -52 67 -74 67 -14 0 -39 -18 -64 -45z"/>
<path d="M7927 7587 c-20 -6 -36 -15 -35 -19 3 -9 127 -56 158 -61 28 -4 24
48 -6 72 -29 23 -57 25 -117 8z"/>
<path d="M5116 7158 c-2 -7 -13 -53 -24 -103 -12 -49 -33 -139 -48 -199 -31
-127 -29 -180 8 -258 39 -80 58 -125 58 -136 0 -16 33 -24 45 -10 6 7 16 29
22 48 6 19 25 81 43 137 l33 101 -48 199 c-26 109 -49 206 -52 216 -5 20 -32
23 -37 5z"/>
<path d="M6280 6584 c-85 -64 -168 -128 -184 -142 -29 -28 -71 -110 -61 -120
6 -7 224 63 268 85 20 10 44 47 92 143 36 71 65 134 65 140 0 23 -33 4 -180
-106z"/>
<path d="M4990 6613 c-5 -21 -21 -84 -34 -140 l-23 -103 49 -80 c28 -44 54
-80 59 -80 6 0 21 26 35 58 13 31 29 65 34 74 6 10 10 23 10 30 0 11 -30 93
-70 193 -4 11 -13 35 -20 53 -16 42 -27 41 -40 -5z"/>
<path d="M1851 6579 c-165 -29 -268 -135 -291 -298 -8 -58 2 -177 17 -191 3
-3 2 13 -1 35 -4 25 -1 58 8 88 8 27 12 64 9 83 -5 28 -3 33 9 29 11 -5 22 14
44 72 26 69 35 81 74 105 43 26 167 65 176 55 3 -3 -11 -44 -31 -92 -46 -111
-95 -249 -95 -268 0 -18 145 -113 310 -204 l122 -66 331 -13 c183 -7 355 -16
384 -19 29 -4 60 -4 70 0 16 6 15 9 -12 32 -16 14 -24 22 -16 18 9 -6 12 -4 7
4 -4 6 -12 9 -17 6 -10 -7 -111 68 -149 111 l-25 28 25 -17 c14 -9 39 -24 55
-33 17 -9 45 -30 64 -48 81 -74 -67 103 -178 214 -126 125 -265 230 -378 286
-142 69 -377 108 -512 83z m287 -100 c62 -10 123 -24 135 -31 l22 -13 -22 -3
c-12 -2 -78 6 -145 17 -68 11 -147 23 -175 26 -38 5 -53 11 -53 22 0 18 50 14
238 -18z m311 -59 c20 -6 47 -19 61 -29 l24 -19 -49 9 c-72 13 -112 28 -127
46 -12 15 -9 16 21 10 19 -4 51 -12 70 -17z"/>
<path d="M4480 6584 c0 -6 7 -19 16 -30 14 -18 14 -18 3 6 -14 31 -19 36 -19
24z"/>
<path d="M4490 6476 c0 -14 7 -74 15 -133 15 -103 18 -110 51 -139 51 -46 113
-88 121 -81 3 4 -9 48 -27 98 -70 194 -160 337 -160 255z"/>
<path d="M5670 6398 c-91 -103 -92 -103 -86 -147 3 -24 6 -61 6 -82 0 -53 17
-51 95 11 l63 50 11 77 c21 140 25 193 13 193 -6 0 -52 -46 -102 -102z"/>
<path d="M8560 6476 c0 -17 64 -196 70 -195 12 1 81 93 86 116 10 39 -28 70
-98 81 -41 6 -58 6 -58 -2z"/>
<path d="M4861 6434 c0 -11 3 -14 6 -6 3 7 2 16 -1 19 -3 4 -6 -2 -5 -13z"/>
<path d="M5162 6411 c-7 -15 -10 -36 -6 -45 12 -31 24 -16 24 29 0 25 -1 45
-3 45 -1 0 -8 -13 -15 -29z"/>
<path d="M4870 6405 c0 -5 7 -46 16 -90 19 -100 22 -300 5 -380 -36 -171 -150
-308 -282 -340 -24 -6 -27 -4 -33 34 -4 25 -14 44 -25 51 -11 6 -92 10 -189
10 l-169 0 -59 38 c-32 21 -87 62 -122 91 -35 29 -65 51 -67 49 -2 -2 30 -31
71 -63 134 -105 127 -98 124 -136 -5 -72 -2 -90 18 -112 21 -22 22 -30 22
-411 l1 -389 -23 -24 c-32 -35 -29 -90 9 -120 l28 -23 374 0 374 0 23 -25 c30
-33 92 -35 120 -4 16 18 19 40 22 157 4 155 -1 195 -29 223 -28 28 -80 25
-109 -6 l-23 -25 -209 0 -208 0 0 268 c0 304 3 338 32 346 15 3 19 11 15 25
-4 16 1 21 27 27 131 27 267 173 291 312 4 27 12 42 25 45 27 7 37 53 16 76
-9 10 -16 33 -16 51 l0 33 24 -22 c30 -28 40 -23 61 33 l17 44 -37 66 c-43 77
-53 86 -72 61 -12 -17 -13 -14 -13 27 0 37 -28 136 -30 103z m-360 -785 c0 -5
-11 -20 -25 -34 l-25 -25 0 -361 0 -360 265 0 265 0 12 25 c6 14 17 25 25 25
10 0 13 -30 13 -140 0 -77 -4 -140 -9 -140 -5 0 -16 11 -25 25 l-16 25 -390 0
c-258 0 -391 3 -395 10 -4 6 5 20 19 31 l26 20 0 424 c0 372 -2 425 -16 439
-8 9 -20 16 -25 16 -5 0 -9 7 -9 15 0 13 24 15 155 15 92 0 155 -4 155 -10z"/>
<path d="M4250 6367 c0 -11 92 -263 98 -269 21 -20 145 -79 152 -72 11 12 -6
162 -21 180 -17 21 -209 164 -220 164 -5 0 -9 -2 -9 -3z"/>
<path d="M5891 6287 c-82 -64 -107 -89 -113 -116 -17 -64 -2 -60 59 17 52 65
70 80 113 95 36 13 54 25 60 43 25 65 5 59 -119 -39z"/>
<path d="M3820 6332 c0 -12 227 -259 245 -266 21 -8 -56 142 -90 176 -15 15
-41 34 -57 42 -16 8 -44 24 -63 36 -19 12 -35 17 -35 12z"/>
<path d="M7505 6318 c-164 -42 -163 -41 -122 -92 l24 -29 79 59 c43 32 83 62
88 66 22 15 -2 14 -69 -4z"/>
<path d="M5123 6297 c-13 -21 -43 -110 -43 -130 0 -28 39 -97 55 -97 40 0 49
219 9 234 -7 3 -17 0 -21 -7z"/>
<path d="M7162 6229 c-35 -10 -68 -19 -73 -21 -4 -2 14 -36 42 -76 31 -45 55
-70 62 -65 13 7 99 64 106 69 4 4 -67 115 -72 113 -1 -1 -30 -10 -65 -20z"/>
<path d="M3070 6232 c0 -4 27 -45 61 -92 33 -47 87 -129 121 -182 33 -54 61
-98 61 -98 17 -5 293 -36 297 -33 5 5 -281 293 -332 334 -35 28 -208 87 -208
71z"/>
<path d="M4070 6183 c0 -10 27 -66 60 -125 l60 -106 69 -21 c86 -26 104 -27
97 -3 -3 9 -12 42 -21 73 -9 31 -23 63 -33 71 -9 8 -65 41 -124 72 -89 47
-108 54 -108 39z"/>
<path d="M3364 6149 c-9 -16 325 -326 359 -334 58 -14 243 -33 250 -26 5 5
-27 57 -69 116 -91 127 -71 116 -359 200 -44 13 -101 30 -128 38 -27 9 -49 11
-53 6z"/>
<path d="M4544 6098 c12 -91 24 -117 66 -138 22 -11 43 -20 48 -20 12 0 25 81
16 103 -7 19 -111 107 -126 107 -7 0 -8 -19 -4 -52z"/>
<path d="M5667 6113 c-56 -47 -69 -73 -61 -124 8 -45 18 -48 65 -16 29 19 35
31 47 91 18 89 8 98 -51 49z"/>
<path d="M6810 6130 c-30 -10 -121 -39 -202 -65 -164 -52 -155 -44 -252 -198
l-37 -59 38 6 c21 3 75 8 121 12 82 6 85 7 145 57 69 56 258 226 269 242 22
30 -2 32 -82 5z"/>
<path d="M6890 6062 c-47 -48 -112 -116 -145 -151 l-60 -63 90 7 c94 8 126 19
250 93 33 19 62 37 64 39 5 4 -85 137 -102 152 -9 7 -35 -13 -97 -77z"/>
<path d="M1740 6116 c-5 -13 -21 -74 -36 -134 l-27 -111 53 -69 c29 -39 62
-75 74 -81 46 -25 299 -90 349 -91 20 0 27 -5 27 -19 0 -11 12 -34 28 -52 l27
-33 0 -380 0 -381 -23 -23 c-12 -12 -25 -35 -28 -51 -6 -30 -9 -31 -134 -47
-19 -3 -37 -8 -40 -12 -18 -25 -321 -119 -341 -106 -13 8 -11 -31 6 -132 14
-80 61 -269 71 -285 2 -4 52 25 111 65 156 103 228 148 313 193 41 22 129 69
195 105 66 36 147 76 180 89 33 12 74 35 90 50 17 15 49 36 72 48 56 28 62 41
19 41 -38 0 -52 -11 -89 -69 -12 -19 -28 -36 -35 -39 -7 -2 -2 7 12 22 36 35
36 93 1 126 l-25 23 0 383 0 383 25 25 c33 33 34 84 2 115 -15 13 -46 25 -78
30 -39 7 -100 34 -219 100 -90 50 -180 94 -198 97 -19 4 -121 5 -228 2 -137
-3 -191 -1 -184 6 7 7 83 12 190 15 99 2 180 6 180 10 0 4 -37 29 -82 56 -46
27 -118 73 -161 102 -43 29 -80 53 -83 53 -2 0 -9 -11 -14 -24z m830 -501 c0
-8 -4 -15 -9 -15 -5 0 -17 -7 -25 -16 -14 -14 -16 -67 -16 -439 l0 -424 25
-19 c47 -38 33 -42 -130 -42 -166 0 -176 3 -130 46 l25 23 0 416 0 416 -25 25
c-14 14 -25 29 -25 34 0 6 63 10 155 10 131 0 155 -2 155 -15z m-62 -1032
c-42 -2 -114 -2 -160 0 -46 1 -11 3 77 3 88 0 125 -2 83 -3z"/>
<path d="M8368 6046 c-59 -39 -115 -76 -125 -82 -10 -7 -16 -14 -13 -17 3 -2
73 -8 157 -11 l151 -7 -14 58 c-9 32 -20 75 -25 96 -5 20 -13 36 -17 36 -4 -1
-55 -34 -114 -73z"/>
<path d="M5036 6058 c-20 -48 -20 -61 2 -81 25 -23 36 -21 51 7 15 27 10 49
-19 86 l-19 25 -15 -37z"/>
<path d="M4384 5996 c23 -94 57 -133 120 -139 18 -2 21 3 18 28 -5 60 -12 72
-62 103 -63 39 -85 41 -76 8z"/>
<path d="M5508 5979 c-19 -14 -28 -30 -28 -49 0 -37 15 -46 45 -26 20 13 25
25 25 56 0 45 -4 47 -42 19z"/>
<path d="M6222 5942 c-101 -36 -104 -38 -123 -81 -10 -24 -19 -47 -19 -52 0
-5 29 -9 64 -9 l64 0 50 53 c60 63 102 113 102 121 0 13 -38 4 -138 -32z"/>
<path d="M5116 5924 c-6 -17 9 -44 25 -44 5 0 9 14 9 30 0 33 -23 42 -34 14z"/>
<path d="M4985 5909 c-9 -26 10 -48 26 -32 12 12 3 53 -11 53 -5 0 -12 -9 -15
-21z"/>
<path d="M4584 5878 c7 -38 22 -55 51 -60 15 -2 21 3 23 23 2 20 -4 32 -26 48
-43 30 -56 27 -48 -11z"/>
<path d="M8150 5903 c-8 -3 -59 -31 -113 -62 -54 -31 -107 -61 -118 -67 -49
-27 -44 -34 22 -34 36 0 112 4 170 9 91 9 339 22 423 23 l28 1 -6 55 c-4 31
-11 61 -17 68 -7 9 -60 12 -192 13 -100 0 -189 -3 -197 -6z"/>
<path d="M2290 5890 c0 -12 63 -44 318 -161 280 -129 342 -152 342 -126 0 7 7
-1 16 -18 8 -16 22 -34 30 -38 21 -12 21 -795 0 -803 -8 -3 -20 -18 -26 -34
-16 -40 3 -98 37 -111 13 -5 188 -9 395 -9 l370 0 30 -25 c37 -31 87 -33 114
-4 17 18 19 40 22 174 4 167 -6 207 -51 224 -34 13 -76 2 -94 -25 -15 -24 -16
-24 -219 -24 l-204 0 -1 235 c-1 129 -1 244 -1 255 0 91 3 142 9 137 13 -14
32 30 33 74 0 72 -14 79 -153 79 -132 0 -126 -3 -182 93 -29 50 -42 63 -56 60
-10 -3 -94 2 -186 11 -92 8 -231 20 -308 26 -77 6 -161 13 -187 16 -29 3 -48
1 -48 -6z m1050 -271 c0 -6 -10 -19 -22 -29 l-23 -18 0 -364 0 -363 265 0 265
0 10 23 c5 12 15 22 22 22 10 0 13 -34 13 -140 0 -77 -4 -140 -9 -140 -5 0
-16 11 -25 25 l-16 25 -390 0 c-258 0 -391 3 -395 10 -4 6 5 20 19 31 l26 20
0 424 c0 372 -2 425 -16 439 -8 9 -20 16 -25 16 -5 0 -9 7 -9 15 0 13 24 15
155 15 105 0 155 -4 155 -11z"/>
<path d="M7741 5888 c-63 -5 -120 -12 -126 -16 -9 -5 -4 -25 16 -69 l28 -63
97 41 c107 44 234 106 234 114 0 7 -115 4 -249 -7z"/>
<path d="M5390 5870 c0 -5 4 -10 9 -10 6 0 13 5 16 10 3 6 -1 10 -9 10 -9 0
-16 -4 -16 -10z"/>
<path d="M4294 5862 c2 -4 25 -22 50 -40 31 -23 46 -29 46 -19 0 8 -6 19 -12
25 -17 14 -90 43 -84 34z"/>
<path d="M5963 5852 c-50 -20 -75 -41 -52 -43 63 -6 70 -4 90 29 24 36 20 38
-38 14z"/>
<path d="M8745 5838 c4 -18 9 -36 12 -40 6 -12 113 -10 113 2 0 10 -73 54
-109 65 -22 7 -23 5 -16 -27z"/>
<path d="M1442 5820 c-19 -12 -32 -28 -32 -40 0 -12 4 -18 10 -15 5 3 18 1 29
-4 17 -10 20 -6 26 30 4 22 5 42 3 44 -2 2 -18 -5 -36 -15z"/>
<path d="M7432 5794 c-29 -19 -51 -41 -49 -47 4 -12 121 -16 132 -5 3 3 -3 24
-12 47 l-18 41 -53 -36z"/>
<path d="M3350 5796 c0 -6 16 -35 35 -63 26 -39 56 -65 117 -102 82 -51 82
-51 168 -51 47 0 109 3 138 7 l54 6 -69 69 c-101 103 -124 114 -278 127 -71 7
-138 14 -147 16 -10 2 -18 -2 -18 -9z"/>
<path d="M4470 5786 c0 -8 9 -24 19 -37 16 -20 22 -22 33 -11 16 16 2 42 -30
53 -16 6 -22 5 -22 -5z"/>
<path d="M3840 5699 c109 -100 117 -104 198 -101 l73 4 -22 36 c-44 75 -60 84
-161 98 -152 22 -152 22 -88 -37z"/>
<path d="M6438 5709 c-75 -10 -183 -47 -231 -80 -143 -98 -233 -261 -244 -439
-6 -110 10 -200 54 -305 58 -141 220 -265 391 -300 217 -45 422 13 568 159
113 113 157 224 157 396 -1 299 -165 501 -455 561 -100 20 -135 21 -240 8z
m237 -74 c186 -39 323 -167 370 -346 19 -71 19 -220 0 -294 -41 -159 -184
-293 -355 -336 -85 -21 -232 -17 -315 9 -217 66 -345 243 -345 474 0 160 44
272 143 364 132 124 310 169 502 129z"/>
<path d="M6483 5460 c-98 -20 -187 -98 -220 -193 -27 -81 -23 -189 11 -262 32
-70 64 -107 126 -143 41 -24 55 -27 145 -27 91 0 104 3 146 27 57 33 105 87
133 147 30 66 28 206 -3 277 -55 126 -200 201 -338 174z m162 -89 c45 -21 99
-74 113 -111 31 -83 18 -216 -28 -280 -71 -100 -239 -116 -333 -32 -56 51 -77
101 -77 188 0 121 40 196 125 235 53 25 147 25 200 0z"/>
<path d="M7383 5689 c-17 -11 -34 -31 -37 -45 -8 -31 9 -90 28 -97 21 -8 20
-796 0 -804 -26 -10 -44 -69 -33 -103 16 -44 57 -52 236 -48 140 3 154 5 174
24 31 32 30 87 -4 122 l-27 29 2 174 3 174 175 -187 175 -188 -3 -50 c-3 -42
0 -53 22 -75 l26 -26 179 3 c159 3 181 5 200 22 28 26 29 91 1 121 -20 22 -21
33 -20 411 0 381 1 389 22 411 30 32 29 100 -2 125 -20 16 -43 18 -195 18
l-174 0 -21 -27 c-27 -35 -22 -99 9 -125 20 -15 21 -26 21 -185 l0 -168 -110
115 c-61 63 -135 144 -164 180 -52 63 -54 67 -49 113 5 41 2 52 -18 73 -22 23
-27 24 -133 22 -61 -1 -142 1 -181 5 -60 5 -75 3 -102 -14z m367 -66 c0 -4
-10 -17 -22 -30 l-22 -23 24 -33 c13 -17 125 -142 249 -276 l226 -243 3 263
c1 145 0 274 -3 286 -3 12 -14 25 -25 28 -11 3 -20 13 -20 21 0 11 26 14 145
14 151 0 166 -5 123 -40 l-23 -18 0 -427 0 -428 23 -14 c12 -9 22 -22 22 -29
0 -11 -30 -14 -155 -14 -133 0 -155 2 -155 15 0 9 7 18 15 21 29 11 15 43 -52
116 -141 154 -445 478 -449 478 -2 0 -4 -126 -4 -280 l0 -281 25 -23 c45 -42
35 -46 -120 -46 -85 0 -145 4 -145 10 0 5 11 20 25 34 l25 25 0 416 0 416 -25
25 c-14 14 -25 29 -25 34 0 6 69 10 170 10 94 0 170 -3 170 -7z"/>
<path d="M7244 5666 c-10 -7 -62 -37 -114 -65 -52 -28 -88 -51 -80 -51 13 0
203 100 218 115 13 12 -6 13 -24 1z"/>
<path d="M1182 5645 c0 -16 2 -22 5 -12 2 9 2 23 0 30 -3 6 -5 -1 -5 -18z"/>
<path d="M1164 5521 c-5 -59 -11 -84 -23 -91 -9 -5 -11 -10 -5 -10 5 0 11 -19
13 -42 1 -23 3 -44 5 -45 2 -2 8 56 15 128 7 72 10 133 7 136 -2 3 -8 -32 -12
-76z"/>
<path d="M8614 5125 c0 -82 2 -115 3 -72 2 43 2 110 0 150 -1 40 -3 5 -3 -78z"/>
<path d="M1935 5220 c10 -11 20 -20 23 -20 3 0 -3 9 -13 20 -10 11 -20 20 -23
20 -3 0 3 -9 13 -20z"/>
<path d="M4013 5143 c9 -2 23 -2 30 0 6 3 -1 5 -18 5 -16 0 -22 -2 -12 -5z"/>
<path d="M1015 4790 c3 -5 8 -10 11 -10 2 0 4 5 4 10 0 6 -5 10 -11 10 -5 0
-7 -4 -4 -10z"/>
<path d="M1422 4770 c0 -14 2 -19 5 -12 2 6 2 18 0 25 -3 6 -5 1 -5 -13z"/>
<path d="M2865 4637 c-17 -7 -54 -21 -83 -32 -47 -18 -51 -22 -45 -45 9 -41
64 -179 72 -185 10 -6 105 5 120 14 7 5 -1 34 -24 86 -48 112 -51 132 -27 139
26 9 50 36 31 35 -8 0 -28 -5 -44 -12z"/>
<path d="M7260 4594 c-8 -2 -31 -5 -50 -8 -63 -11 -65 -16 -26 -88 58 -105 1
-90 531 -133 99 -8 203 -15 230 -15 50 1 50 1 28 19 -12 10 -104 55 -204 100
-170 78 -188 83 -277 92 -57 5 -99 14 -104 21 -4 7 -8 10 -8 6 0 -4 -13 -3
-29 2 -15 4 -34 4 -42 -1 -7 -4 -18 -4 -24 0 -5 4 -17 6 -25 5z"/>
<path d="M3014 4538 c13 -29 29 -65 36 -80 l12 -26 71 38 c66 36 107 74 75 69
-31 -4 -59 2 -53 11 4 6 -10 10 -34 10 -53 0 -45 -1 -85 15 -20 8 -38 15 -41
15 -2 0 6 -24 19 -52z"/>
<path d="M5703 4563 c9 -2 23 -2 30 0 6 3 -1 5 -18 5 -16 0 -22 -2 -12 -5z"/>
<path d="M7796 4561 c-21 -8 -3 -20 190 -129 167 -95 162 -93 357 -92 94 1
177 0 182 -1 21 -5 -95 -15 -200 -17 -60 -2 -111 -5 -113 -6 -6 -6 19 -25 147
-107 68 -44 127 -76 131 -72 10 10 56 192 64 253 6 42 4 48 -34 93 -23 26 -45
45 -50 42 -8 -5 -320 10 -395 19 -232 28 -248 29 -279 17z"/>
<path d="M3990 4516 c-136 -55 -372 -174 -582 -293 -156 -87 -167 -95 -155
-113 15 -26 19 -25 48 6 29 31 117 93 178 124 l45 22 -63 -58 c-35 -33 -70
-63 -77 -67 -24 -14 -17 -40 9 -34 51 11 394 120 419 133 15 8 55 55 89 106
l62 91 -62 -6 c-33 -4 -61 -4 -61 -1 0 3 44 25 98 50 159 74 177 83 167 83 -5
0 -57 -19 -115 -43z"/>
<path d="M5629 4531 c-16 -16 -29 -35 -29 -43 0 -7 12 2 26 19 14 18 33 37 42
43 11 6 12 9 4 10 -8 0 -27 -13 -43 -29z"/>
<path d="M6586 4540 c-37 -5 -38 -6 -20 -22 30 -27 66 -36 174 -47 55 -6 118
-14 140 -17 32 -5 40 -3 40 8 0 29 -32 42 -122 48 -49 4 -93 11 -96 17 -9 13
-65 20 -116 13z"/>
<path d="M2539 4494 c-187 -89 -285 -140 -307 -161 -14 -13 -32 -23 -40 -23
-23 0 -191 -92 -317 -173 -60 -39 -111 -72 -113 -73 -4 -2 63 -194 87 -248 18
-42 23 -46 54 -46 18 0 58 4 88 9 30 5 90 15 134 22 207 31 194 26 318 146 62
60 156 144 210 187 53 43 97 81 97 85 0 3 -13 28 -28 55 l-27 49 -205 0 c-182
-1 -194 0 -110 8 245 23 292 28 296 32 4 4 -48 153 -57 161 -3 3 -39 -10 -80
-30z"/>
<path d="M1291 4511 c-25 -16 54 -375 139 -631 348 -1045 1143 -1903 2169
-2340 533 -227 1154 -336 1718 -302 1146 70 2132 580 2851 1475 291 363 555
875 681 1322 25 89 91 379 91 400 0 3 -24 -8 -53 -25 -83 -47 -120 -37 -47 12
20 14 35 32 35 43 0 17 -9 21 -58 25 -55 5 -58 4 -52 -15 51 -175 67 -335 46
-461 -31 -176 -163 -349 -331 -433 -114 -56 -222 -75 -385 -68 -154 7 -274 39
-422 112 -140 69 -249 151 -354 265 -54 59 -86 86 -97 83 -9 -2 -37 3 -61 12
-87 31 -74 3 71 -143 159 -160 408 -432 408 -444 0 -23 -68 36 -154 132 -145
161 -500 510 -519 510 -10 0 -106 25 -214 55 -108 31 -205 55 -215 53 -15 -3
-8 -19 48 -101 36 -55 64 -101 62 -103 -4 -3 -31 29 -167 196 -30 37 -26 15
24 -127 l46 -128 -52 60 c-54 62 -389 400 -352 355 11 -14 19 -30 16 -37 -4
-11 94 -213 120 -246 8 -9 52 -40 98 -67 90 -54 95 -66 11 -25 -56 27 -72 30
-72 15 0 -17 183 -390 192 -390 5 0 30 29 55 65 26 35 50 61 54 57 4 -4 14
-31 24 -60 l17 -52 -62 -73 c-99 -116 -324 -314 -417 -366 -13 -7 -10 -17 22
-67 21 -32 39 -60 40 -62 2 -2 31 17 66 42 35 25 87 61 114 80 28 19 79 61
114 93 l63 58 -26 57 c-31 68 -31 66 -5 94 l22 23 43 -29 c23 -17 49 -27 57
-24 9 3 19 -6 27 -25 7 -17 16 -31 21 -31 5 0 75 -44 156 -99 81 -54 200 -132
263 -173 111 -72 148 -103 138 -114 -7 -6 -97 49 -351 217 l-192 125 -47 -56
c-82 -97 -357 -330 -389 -330 -13 0 -11 -13 6 -35 8 -11 43 -58 77 -105 82
-111 288 -322 408 -419 110 -88 198 -146 207 -137 4 3 -19 82 -50 174 -30 92
-59 176 -62 187 -6 16 -2 15 18 -7 24 -26 127 -310 127 -351 0 -16 2 -16 28
-3 39 20 183 127 296 221 l96 80 -5 48 c-3 26 -17 84 -30 130 l-24 82 36 31
36 30 -39 24 c-38 22 -73 57 -74 72 0 4 30 -10 67 -32 76 -44 71 -45 158 29
69 59 66 62 86 -65 20 -127 16 -343 -9 -445 -50 -204 -153 -340 -315 -414
-240 -110 -529 -46 -838 187 -109 82 -295 268 -404 403 -49 61 -92 114 -96
119 -5 6 -41 -6 -86 -27 -82 -38 -214 -87 -235 -87 -15 0 -73 88 -65 97 3 3
27 9 51 14 25 5 80 22 121 40 l75 31 0 55 c0 37 4 52 11 47 6 -3 3 6 -6 20
-10 15 -23 25 -29 22 -141 -62 -177 -77 -203 -82 -28 -5 -32 -2 -57 42 -14 26
-25 48 -24 49 2 1 28 10 58 20 30 10 81 31 112 46 l57 29 -40 72 c-54 98 -196
390 -221 456 -11 29 -49 96 -84 149 -35 54 -64 101 -64 105 0 4 -9 8 -19 8
-16 0 -22 -11 -31 -57 -7 -32 -16 -71 -21 -88 -5 -16 -12 -64 -16 -105 -3 -41
-11 -82 -18 -90 -7 -8 -29 -85 -50 -170 -20 -85 -48 -196 -62 -245 l-25 -91
87 -304 c47 -168 90 -318 95 -335 4 -16 22 -74 39 -129 31 -98 41 -168 21
-136 -14 22 -141 413 -174 540 -53 201 -65 242 -70 247 -15 15 -32 -10 -44
-63 -16 -72 -70 -259 -118 -412 -20 -63 -34 -116 -31 -118 2 -2 35 43 72 101
38 58 72 102 75 98 3 -5 46 -52 94 -105 l88 -98 -46 -65 c-147 -205 -360 -435
-503 -542 -297 -222 -694 -262 -936 -94 -49 34 -134 120 -168 171 -13 19 -31
36 -39 38 -8 2 -57 23 -109 48 -92 43 -93 44 -120 26 -109 -74 -178 -50 -188
67 -4 38 -2 61 4 61 6 0 13 -23 15 -50 6 -57 30 -90 64 -90 30 0 94 30 94 44
0 6 -31 28 -69 48 -123 67 -411 263 -411 279 0 4 9 10 19 14 10 3 46 23 78 44
l59 38 120 -80 c159 -107 339 -209 361 -205 16 3 18 17 20 118 5 235 64 416
201 624 49 75 190 221 281 290 64 50 274 190 342 229 l46 26 11 93 c25 209 25
210 12 218 -11 7 -9 18 8 57 11 26 23 80 27 119 5 45 14 79 26 95 19 24 19 24
13 -58 -5 -57 -3 -83 4 -83 10 0 177 185 194 214 10 18 -8 177 -20 185 -7 4 1
36 23 91 19 47 34 101 34 120 0 31 -2 29 -15 -20 -35 -134 -124 -284 -274
-463 -7 -8 -493 -177 -497 -173 -2 2 41 41 94 88 151 133 229 218 242 263 13
49 14 65 2 65 -19 0 -236 -111 -258 -132 -28 -26 -221 -404 -211 -413 8 -9 38
8 107 60 64 48 91 64 134 76 39 11 39 11 -136 -116 l-152 -110 -46 -90 c-48
-94 -194 -421 -274 -613 -43 -101 -84 -173 -85 -147 -1 29 210 527 290 685 17
33 30 66 30 75 0 22 -24 18 -57 -8 -76 -62 -586 -397 -605 -397 -30 0 33 51
194 155 101 66 257 171 348 235 l165 115 75 150 c119 240 144 294 137 301 -4
4 -42 -9 -85 -29 -43 -21 -82 -37 -87 -37 -12 1 53 42 112 72 82 41 110 73
168 194 57 120 62 134 44 134 -24 0 -206 -61 -231 -78 -15 -9 -70 -71 -124
-137 -53 -66 -103 -127 -112 -135 -22 -23 35 75 95 161 29 42 53 80 53 84 0 7
-45 0 -95 -16 -16 -5 -104 -30 -195 -55 -91 -25 -167 -47 -169 -50 -18 -17
266 -322 361 -387 26 -18 48 -35 48 -39 0 -7 -87 -38 -109 -38 -39 0 -251 209
-363 356 -22 30 -43 54 -46 54 -3 0 -2 -3 2 -7 3 -4 -16 -30 -44 -58 l-51 -52
44 -59 c71 -94 161 -187 227 -235 l60 -44 -47 -22 c-27 -13 -56 -23 -65 -23
-23 0 -120 91 -220 207 l-82 94 -59 -58 c-32 -32 -117 -122 -188 -200 -121
-131 -154 -161 -167 -149 -12 13 369 421 391 420 11 -1 4 15 -25 57 -23 33
-47 59 -52 59 -18 0 -178 -124 -287 -223 -103 -94 -224 -227 -310 -342 -157
-211 -219 -384 -175 -489 16 -39 28 -48 50 -40 13 5 10 14 -19 54 -34 47 -35
50 -25 97 12 57 49 153 59 153 4 0 15 -13 24 -29 10 -17 62 -85 117 -153 165
-204 152 -192 192 -184 38 7 178 77 303 151 42 25 82 45 88 45 23 0 -50 -60
-128 -105 -70 -41 -76 -46 -43 -40 37 6 37 6 137 -112 55 -65 97 -121 92 -126
-4 -4 -61 -15 -127 -23 -150 -20 -335 -14 -447 15 -264 69 -422 260 -440 536
-4 60 -10 78 -42 125 -20 30 -84 152 -142 270 -57 118 -108 221 -112 229 -4 8
-31 20 -61 28 -63 16 -110 55 -110 91 0 29 43 107 66 120 13 7 11 23 -19 128
-19 65 -43 152 -53 193 l-19 73 -60 27 c-33 15 -66 35 -74 44 -7 9 -20 17 -27
17 -9 0 -14 12 -14 34 0 38 -9 49 -29 37z m7133 -1032 l-26 -51 -29 28 c-16
15 -29 31 -29 35 0 7 76 34 103 38 4 1 -4 -22 -19 -50z m-95 -36 c23 -27 41
-54 41 -62 0 -27 -179 -318 -269 -436 -28 -37 -51 -72 -51 -76 0 -5 9 -31 20
-59 46 -117 16 -180 -86 -180 -60 0 -112 16 -98 30 6 6 31 6 64 1 59 -10 94 0
114 31 8 13 6 32 -9 75 -11 31 -25 58 -30 60 -6 2 -45 -38 -87 -89 -42 -51
-112 -128 -155 -170 l-78 -78 3 129 3 128 89 104 c135 158 131 142 61 235 -33
44 -89 115 -125 159 -36 43 -63 81 -61 83 15 15 110 -85 209 -221 28 -37 53
-67 58 -67 19 0 158 209 247 373 38 68 46 77 71 77 22 0 38 -12 69 -47z
m-5759 -148 c0 -2 -37 -50 -83 -107 -45 -57 -98 -124 -116 -150 -32 -44 -51
-53 -51 -25 0 16 151 212 196 255 30 28 54 41 54 27z m4140 -187 c94 -221 180
-432 180 -445 0 -31 -28 7 -55 75 -15 37 -60 143 -101 235 -41 92 -72 172 -69
177 12 19 23 9 45 -42z m-777 -575 c11 -174 8 -342 -5 -319 -12 21 -34 387
-24 411 14 37 23 7 29 -92z m-2640 -182 c-32 -99 -62 -179 -68 -177 -15 5 -8
41 36 177 38 119 74 197 85 186 3 -3 -21 -86 -53 -186z m-633 153 l114 -7 71
-61 c38 -34 87 -74 108 -90 20 -16 37 -31 37 -35 0 -7 -143 -91 -155 -91 -15
0 -148 113 -244 207 -73 72 -90 93 -71 89 14 -2 77 -8 140 -12z m3283 -601 c0
-112 2 -203 5 -203 38 1 379 113 494 162 27 11 51 18 54 16 3 -3 7 -44 11 -91
5 -78 4 -86 -14 -95 -39 -21 -291 -104 -432 -143 -80 -21 -148 -42 -151 -46
-4 -5 -13 -27 -20 -51 -8 -24 -30 -62 -51 -85 l-36 -42 -38 20 c-20 11 -57 42
-81 68 l-43 49 -88 -11 c-48 -5 -128 -13 -177 -17 -85 -6 -89 -6 -82 12 17 41
46 137 46 150 0 8 8 14 18 14 29 0 185 19 189 23 3 3 -11 38 -56 142 -28 62
-59 153 -61 175 -5 60 4 48 49 -65 26 -66 60 -149 76 -184 l29 -64 65 7 c68 6
250 41 258 49 2 3 7 105 10 227 5 167 9 217 17 203 7 -12 10 -89 9 -220z m751
141 c28 -19 35 -29 27 -37 -8 -8 -21 -1 -48 26 -44 43 -34 48 21 11z m127 -59
c29 -13 75 -30 101 -37 26 -6 48 -15 48 -18 0 -3 -18 -17 -41 -29 -45 -25 -45
-26 23 -61 69 -37 118 -17 118 47 0 23 4 33 13 30 18 -6 12 -66 -11 -96 -27
-37 -69 -38 -136 -5 -31 15 -56 33 -56 40 0 7 -64 -18 -157 -62 -87 -41 -163
-74 -169 -74 -9 0 -14 28 -16 90 l-3 89 105 55 c58 29 110 54 117 55 6 1 35
-10 64 -24z m-1697 -379 l178 1 -5 -31 c-3 -17 -15 -57 -27 -88 l-21 -58 -167
0 c-92 0 -232 5 -312 11 l-145 11 -50 -48 c-28 -27 -63 -55 -78 -63 -26 -14
-29 -13 -58 15 -39 37 -65 84 -47 84 7 0 26 -16 41 -35 15 -19 37 -35 48 -35
26 0 104 73 95 88 -4 7 -20 12 -37 12 -41 0 -36 12 14 32 23 10 76 40 117 67
l75 50 100 -7 c55 -4 180 -7 279 -6z"/>
<path d="M5800 1490 c-19 -4 -52 -11 -72 -14 -21 -4 -38 -13 -38 -19 0 -20 74
-87 96 -87 26 0 58 34 79 82 8 21 15 40 15 43 0 7 -37 5 -80 -5z"/>
<path d="M5860 4516 c0 -3 17 -17 37 -31 26 -17 32 -25 20 -25 -27 0 -17 -32
13 -46 58 -28 76 -34 98 -32 12 1 22 3 22 5 0 1 -33 27 -72 57 -73 53 -118 81
-118 72z"/>
<path d="M1430 4487 c-47 -24 -33 -69 33 -102 28 -14 29 -14 23 8 -3 12 -8 41
-12 65 -7 46 -8 47 -44 29z"/>
<path d="M5592 4450 c0 -14 2 -19 5 -12 2 6 2 18 0 25 -3 6 -5 1 -5 -13z"/>
<path d="M4028 4399 c-59 -63 -102 -118 -97 -123 2 -2 49 11 104 30 101 34
130 54 141 101 8 31 7 32 -50 39 -47 7 -47 7 -98 -47z"/>
<path d="M4732 4420 c0 -19 2 -27 5 -17 2 9 2 25 0 35 -3 9 -5 1 -5 -18z"/>
<path d="M6346 4422 c18 -16 39 -53 49 -81 9 -28 21 -53 26 -57 5 -3 6 -11 3
-17 -4 -7 -4 -9 0 -6 4 4 18 -3 31 -15 13 -12 78 -39 147 -60 67 -22 157 -49
198 -62 123 -39 129 -30 38 55 -158 146 -258 230 -289 239 -19 6 -71 13 -116
16 -45 4 -90 9 -100 12 -11 4 -6 -6 13 -24z"/>
<path d="M4265 4410 c-10 -11 -16 -22 -13 -25 7 -7 68 27 68 38 0 15 -38 6
-55 -13z"/>
<path d="M6686 4399 c16 -28 300 -311 329 -329 17 -10 66 -28 110 -40 43 -11
85 -26 93 -32 7 -6 -21 37 -63 97 -41 59 -101 148 -132 197 -30 48 -58 88 -62
88 -28 1 -214 21 -245 26 -31 5 -37 4 -30 -7z"/>
<path d="M5647 4384 c-8 -8 1 -24 14 -24 5 0 9 7 9 15 0 15 -12 20 -23 9z"/>
<path d="M5755 4380 c-8 -13 3 -70 17 -87 15 -19 118 -76 125 -70 12 13 -45
132 -68 143 -42 20 -67 25 -74 14z"/>
<path d="M6060 4377 c0 -2 15 -16 33 -33 l32 -29 -29 33 c-28 30 -36 37 -36
29z"/>
<path d="M4448 4353 c-20 -23 -62 -122 -55 -129 6 -6 86 43 105 65 6 8 12 30
12 48 0 28 -4 33 -23 33 -13 0 -31 -8 -39 -17z"/>
<path d="M5122 4330 c0 -19 2 -27 5 -17 2 9 2 25 0 35 -3 9 -5 1 -5 -18z"/>
<path d="M7290 4342 c0 -6 38 -40 83 -76 46 -36 90 -73 98 -82 13 -16 12 -16
-11 -4 -14 7 -42 24 -64 38 l-39 24 34 -48 c41 -57 195 -216 262 -269 38 -31
66 -42 144 -61 52 -12 103 -30 112 -39 17 -19 18 -19 -94 1 l-30 5 25 -21 c79
-65 291 -137 436 -147 l71 -5 16 41 c10 23 17 44 17 46 0 3 -18 5 -40 5 -115
0 -330 46 -330 71 0 5 6 6 13 4 15 -6 121 -22 237 -36 47 -5 95 -14 107 -19
19 -8 23 -3 43 43 30 69 90 244 90 261 0 16 -154 116 -293 191 -100 54 -76 51
-467 65 -146 6 -300 13 -342 17 -54 4 -78 2 -78 -5z"/>
<path d="M2852 4333 c-16 -3 -22 -9 -18 -20 3 -8 6 -17 6 -19 0 -11 28 -1 55
21 l30 25 -25 -1 c-14 -1 -35 -4 -48 -6z"/>
<path d="M4271 4315 c-65 -19 -78 -26 -98 -58 -45 -71 -115 -208 -109 -214 7
-8 227 114 247 137 15 17 47 147 38 154 -2 1 -37 -7 -78 -19z"/>
<path d="M5934 4303 c11 -68 27 -113 46 -131 30 -27 208 -118 216 -109 7 7
-21 64 -85 172 -34 57 -40 61 -101 82 -36 12 -69 22 -74 22 -5 1 -6 -16 -2
-36z"/>
<path d="M4747 4313 c-4 -3 -7 -15 -7 -26 0 -19 1 -20 20 -2 11 10 20 22 20
27 0 10 -24 11 -33 1z"/>
<path d="M5591 4304 c0 -11 3 -14 6 -6 3 7 2 16 -1 19 -3 4 -6 -2 -5 -13z"/>
<path d="M5344 4275 c-4 -18 -1 -32 11 -45 25 -27 32 -25 40 12 6 24 3 35 -11
45 -25 19 -33 16 -40 -12z"/>
<path d="M5610 4281 c-7 -14 -6 -35 2 -70 6 -28 13 -49 16 -46 3 2 24 -12 47
-31 47 -38 61 -33 50 19 -20 96 -25 107 -65 127 -39 20 -39 20 -50 1z"/>
<path d="M5108 4090 c-13 -333 -32 -448 -93 -576 -64 -133 -202 -254 -472
-413 -277 -163 -500 -354 -654 -561 -91 -121 -130 -191 -165 -293 -63 -185
-70 -388 -17 -501 11 -24 13 -26 8 -6 -15 61 -29 150 -24 155 3 2 41 -10 85
-29 43 -18 130 -50 191 -72 62 -21 113 -43 113 -48 0 -9 -98 -129 -110 -134
-4 -1 -58 15 -120 38 -62 22 -115 38 -117 36 -2 -2 21 -26 51 -54 73 -66 148
-92 268 -92 48 0 88 4 88 9 0 5 -21 14 -48 20 -81 20 -81 21 -22 98 30 37 55
69 56 71 1 2 44 -8 95 -22 52 -14 99 -26 104 -26 7 0 7 52 1 153 -5 85 -6 170
-2 190 12 66 26 39 26 -51 0 -49 3 -137 6 -195 7 -101 8 -106 31 -112 19 -4
38 4 82 36 79 59 285 269 356 363 69 93 69 94 200 552 l95 331 -51 199 c-66
259 -69 280 -54 300 11 15 13 15 17 -7 14 -61 81 -345 84 -356 6 -21 33 -14
39 10 12 55 77 326 87 365 14 54 5 135 -20 187 -25 51 -48 105 -56 128 -8 26
-33 21 -51 -10 l-16 -28 8 40 c4 22 7 68 6 103 -2 60 -1 62 21 56 21 -5 25 1
46 64 l23 70 -27 46 c-15 25 -33 46 -41 46 -10 0 -15 16 -17 58 -2 31 -6 -31
-10 -138z m-712 -1157 c-7 -58 -32 -429 -41 -607 -6 -124 -16 -180 -27 -160
-11 19 24 721 38 769 7 21 23 45 31 45 3 0 2 -21 -1 -47z m-136 -57 c0 -16
-371 -505 -383 -506 -20 -1 12 54 102 175 53 72 121 162 149 202 50 68 132
148 132 129z m-450 -582 c-11 -27 -71 -106 -77 -100 -7 6 18 61 43 93 30 40
47 43 34 7z"/>
<path d="M5192 4268 c-17 -17 -15 -41 6 -77 21 -38 30 -39 42 -5 15 38 12 65
-7 80 -22 17 -26 17 -41 2z"/>
<path d="M4762 4201 c-31 -29 -32 -32 -32 -110 0 -45 4 -81 8 -81 13 0 69 62
85 93 12 23 13 36 3 74 -7 26 -16 48 -22 50 -5 2 -24 -10 -42 -26z"/>
<path d="M5771 4158 c2 -95 8 -108 89 -171 131 -102 153 -118 162 -109 4 4 -3
37 -16 72 -13 36 -35 94 -48 130 -23 63 -25 66 -93 102 -39 21 -76 38 -82 38
-9 0 -13 -18 -12 -62z"/>
<path d="M5281 4139 l-22 -50 28 -56 c46 -92 68 -85 78 22 7 67 6 73 -20 103
-15 18 -30 32 -35 32 -4 0 -17 -23 -29 -51z"/>
<path d="M4389 4160 c-25 -13 -40 -31 -52 -61 l-17 -42 26 24 c26 24 89 99 82
99 -1 -1 -19 -9 -39 -20z"/>
<path d="M8671 4110 c-12 -41 -24 -81 -27 -89 -7 -20 57 -85 68 -68 11 18 8
124 -6 182 l-12 50 -23 -75z"/>
<path d="M5994 4096 c-3 -7 4 -42 14 -77 11 -35 27 -89 36 -120 20 -68 33 -81
236 -233 147 -110 180 -130 180 -105 0 16 -188 384 -212 414 -16 21 -222 135
-243 135 -3 0 -8 -6 -11 -14z"/>
<path d="M5655 4068 c11 -36 85 -210 106 -248 l20 -35 -5 35 c-3 19 -10 72
-17 118 -11 80 -13 84 -54 117 -49 41 -59 43 -50 13z"/>
<path d="M3087 4014 l-57 -36 17 -30 c33 -55 41 -56 85 -9 44 47 41 69 -7 51
-43 -16 -41 -5 4 22 23 14 38 28 34 31 -10 11 -15 9 -76 -29z"/>
<path d="M4783 3988 l-53 -54 0 -132 c0 -156 8 -165 66 -70 36 59 38 66 42
167 6 152 7 152 -55 89z"/>
<path d="M5390 3973 c-8 -38 -13 -74 -11 -82 4 -20 91 -157 91 -143 0 7 -9 50
-20 95 -11 45 -24 108 -30 140 -6 31 -13 57 -14 57 -1 0 -9 -30 -16 -67z"/>
<path d="M5201 3967 c-46 -104 -46 -96 0 -214 23 -59 48 -114 55 -122 11 -12
15 -10 24 15 6 16 21 77 32 136 l21 107 -44 65 c-24 36 -48 66 -54 66 -5 0
-21 -24 -34 -53z"/>
<path d="M5794 3928 c4 -24 12 -80 17 -126 8 -69 19 -103 67 -205 44 -92 197
-370 218 -395 1 -2 24 11 49 30 26 18 68 47 93 65 60 42 210 173 215 188 3 6
-41 44 -97 85 -55 41 -133 98 -172 127 -40 29 -77 53 -83 53 -6 0 -11 -10 -12
-22 l-1 -23 -6 23 c-12 40 -58 87 -161 165 -120 91 -137 95 -127 35z"/>
<path d="M8591 3862 c-19 -53 -40 -110 -48 -125 -19 -37 -10 -44 24 -21 24 15
25 19 10 22 -23 5 -17 26 9 30 50 7 63 14 79 38 36 55 37 81 3 119 -16 19 -33
35 -37 35 -3 0 -21 -44 -40 -98z"/>
<path d="M1600 3941 c0 -7 -11 -27 -25 -45 -35 -46 -30 -94 12 -111 35 -14 83
-23 83 -15 0 11 -60 173 -66 179 -2 2 -4 -1 -4 -8z"/>
<path d="M4582 3779 c-51 -55 -98 -112 -103 -127 -18 -47 -47 -332 -34 -332 7
0 39 17 72 39 65 42 115 103 169 208 l35 67 -7 111 c-6 99 -15 135 -33 135 -3
0 -48 -45 -99 -101z"/>
<path d="M2269 3796 c-5 -6 -232 -42 -316 -51 -43 -5 -63 -11 -63 -20 0 -17
139 -303 151 -310 4 -3 17 15 28 41 29 65 85 157 150 244 69 93 74 100 63 100
-5 0 -11 -2 -13 -4z"/>
<path d="M4765 3620 c-9 -18 -14 -34 -11 -37 2 -3 12 9 21 27 9 18 14 34 11
37 -2 3 -12 -9 -21 -27z"/>
<path d="M6590 3375 c0 -9 7 -30 16 -46 15 -30 16 -30 35 -13 25 23 24 38 -6
58 -31 20 -45 20 -45 1z"/>
<path d="M5909 2836 c4 -16 12 -31 19 -34 18 -6 14 13 -8 39 l-19 24 8 -29z"/>
<path d="M2220 2797 c0 -9 9 -21 21 -27 31 -17 33 -7 4 20 -20 19 -25 20 -25
7z"/>
<path d="M7362 2189 c-117 -92 -118 -95 -37 -89 63 4 107 43 135 118 11 30 19
56 18 57 -2 1 -54 -37 -116 -86z"/>
<path d="M7487 8878 l-25 -43 81 -52 c88 -57 107 -62 131 -37 23 22 20 57 -6
81 -28 25 -135 93 -147 93 -5 0 -20 -19 -34 -42z"/>
<path d="M8090 8318 l-94 -101 59 -55 c33 -30 71 -58 85 -64 37 -14 86 -1 126
34 48 42 67 83 60 123 -7 34 -67 110 -115 144 l-28 20 -93 -101z"/>
<path d="M1366 7560 c-68 -21 -121 -105 -114 -182 11 -112 142 -164 229 -91
29 24 59 71 59 92 0 12 -55 -3 -76 -20 -22 -18 -27 -5 -11 33 10 23 27 41 51
52 20 9 36 23 36 30 0 21 -47 66 -85 82 -38 16 -47 16 -89 4z"/>
<path d="M1323 3025 c-41 -17 -73 -69 -73 -115 0 -40 29 -108 53 -129 15 -12
17 -10 19 15 0 16 0 41 -1 56 -2 22 1 27 14 22 24 -10 45 -58 45 -104 0 -39 1
-40 34 -40 39 0 95 35 113 70 39 76 -14 197 -100 229 -37 14 -65 13 -104 -4z"/>
<path d="M8036 2013 c-36 -31 -66 -62 -66 -68 0 -6 40 -51 90 -100 l90 -89 56
54 c60 59 84 97 84 130 0 63 -76 130 -146 130 -37 0 -51 -7 -108 -57z"/>
<path d="M7425 1528 c-33 -22 -66 -43 -74 -47 -10 -6 -8 -17 14 -50 15 -22 29
-41 31 -41 10 0 142 91 158 109 18 19 18 22 2 46 -23 36 -59 31 -131 -17z"/>
<path d="M5305 774 c-14 -31 -25 -60 -25 -65 0 -5 27 -9 60 -9 34 0 60 4 60
10 0 12 -60 120 -66 120 -2 0 -15 -25 -29 -56z"/>
</g>
</svg>
